# xmcd
#
# Track frame offsets:
#	150
#	22592
#	38465
#	55262
#	70965
#	96227
#	119082
#	137600
#	154075
#	171402
#	195082
#	208452
#
# Disc length: 3024 seconds
#
# Revision: 3
# Processed by: cddbd v1.5.2PL0 Copyright (c) Steve Scherf et al.
# Submitted via: audiograbber 1.83.01
#
DISCID=a20bce0c
DTITLE=Bob Seger - UK3121
DYEAR=1900
DGENRE=
TTITLE0=Turn The Page
TTITLE1=Night Moves
TTITLE2=Mainstreet
TTITLE3=Still The Same
TTITLE4=Against The Wind
TTITLE5=Hollywood Nights
TTITLE6=You'll Accomp'ny Me
TTITLE7=Fire Lake
TTITLE8=Till It Shines
TTITLE9=Famous Final Scene, The
TTITLE10=Betty Lou's Gettin' Out Tonight
TTITLE11=Good For Me
EXTD=
EXTT0=
EXTT1=
EXTT2=
EXTT3=
EXTT4=
EXTT5=
EXTT6=
EXTT7=
EXTT8=
EXTT9=
EXTT10=
EXTT11=
PLAYORDER=
